# xmcd
#
# Track frame offsets:
#	185
#	25220
#	49792
#	102352
#	129280
#	156487
#	177417
#	209432
#	225827
#	251027
#
# Disc length: 3662 seconds
#
# Revision: 1
# Processed by: cddbd v1.4PL0 Copyright (c) Steve Scherf et al.
# Submitted via: audiograbber 1.80
#
DISCID=820e4c0a
DTITLE=Johnny Winter - Live In Houston
DYEAR=1900
DGENRE=
TTITLE0=E.Z. Rider
TTITLE1=Walking By Myself
TTITLE2=Mother Earth
TTITLE3=Boney Maronie
TTITLE4=Busted In Austin
TTITLE5=Messing With The Kid
TTITLE6=I Can't Make It By Myself
TTITLE7=Johnny B. Good
TTITLE8=It's All Over Now
TTITLE9=Jumping Jack Flash
EXTD=
EXTT0=
EXTT1=
EXTT2=
EXTT3=
EXTT4=
EXTT5=
EXTT6=
EXTT7=
EXTT8=
EXTT9=
PLAYORDER=
